<mxfile host="app.diagrams.net" modified="2024-07-18T09:19:13.514Z" agent="Mozilla/5.0 (Windows NT 10.0; Win64; x64) AppleWebKit/537.36 (KHTML, like Gecko) Chrome/124.0.0.0 Safari/537.36" etag="1gqLXFjC5_4AXmrB4xBP" version="24.2.0" type="device">
  <diagram name="Страница — 1" id="03Coh9SCqXKfolqBL-Bg">
    <mxGraphModel dx="712" dy="745" grid="1" gridSize="10" guides="1" tooltips="1" connect="1" arrows="1" fold="1" page="1" pageScale="1" pageWidth="2339" pageHeight="3300" math="0" shadow="0">
      <root>
        <mxCell id="0" />
        <mxCell id="1" parent="0" />
        <mxCell id="xQFLp70TQq-CVulNl5eg-1" value="REACT" style="rounded=0;whiteSpace=wrap;html=1;" vertex="1" parent="1">
          <mxGeometry x="300" y="140" width="140" height="160" as="geometry" />
        </mxCell>
        <mxCell id="xQFLp70TQq-CVulNl5eg-2" value="REDUX" style="rounded=0;whiteSpace=wrap;html=1;" vertex="1" parent="1">
          <mxGeometry x="310" y="230" width="120" height="60" as="geometry" />
        </mxCell>
        <mxCell id="xQFLp70TQq-CVulNl5eg-5" style="edgeStyle=orthogonalEdgeStyle;rounded=0;orthogonalLoop=1;jettySize=auto;html=1;entryX=1;entryY=0.5;entryDx=0;entryDy=0;" edge="1" parent="1" source="xQFLp70TQq-CVulNl5eg-3" target="xQFLp70TQq-CVulNl5eg-1">
          <mxGeometry relative="1" as="geometry" />
        </mxCell>
        <mxCell id="xQFLp70TQq-CVulNl5eg-3" value="node.js" style="rounded=0;whiteSpace=wrap;html=1;" vertex="1" parent="1">
          <mxGeometry x="490" y="140" width="120" height="160" as="geometry" />
        </mxCell>
        <mxCell id="xQFLp70TQq-CVulNl5eg-4" value="webSocket" style="rounded=0;whiteSpace=wrap;html=1;" vertex="1" parent="1">
          <mxGeometry x="505" y="235" width="90" height="50" as="geometry" />
        </mxCell>
        <mxCell id="xQFLp70TQq-CVulNl5eg-7" style="edgeStyle=orthogonalEdgeStyle;rounded=0;orthogonalLoop=1;jettySize=auto;html=1;entryX=0.5;entryY=1;entryDx=0;entryDy=0;" edge="1" parent="1" source="xQFLp70TQq-CVulNl5eg-6" target="xQFLp70TQq-CVulNl5eg-3">
          <mxGeometry relative="1" as="geometry" />
        </mxCell>
        <mxCell id="xQFLp70TQq-CVulNl5eg-6" value="PostgreSQL" style="rounded=0;whiteSpace=wrap;html=1;" vertex="1" parent="1">
          <mxGeometry x="490" y="340" width="120" height="60" as="geometry" />
        </mxCell>
      </root>
    </mxGraphModel>
  </diagram>
</mxfile>
